<svg width="1920" height="2148" viewBox="0 0 1920 2148" fill="none" xmlns="http://www.w3.org/2000/svg">
<g opacity="0.2">
<line x1="88.9457" y1="1.79674e-08" x2="88.9456" y2="2148" stroke="#565454"/>
<line x1="549.599" y1="1.47389e-08" x2="549.599" y2="2148" stroke="#565454"/>
<line x1="1010.25" y1="1.47389e-08" x2="1010.25" y2="2148" stroke="#565454"/>
<line x1="1470.9" y1="1.47389e-08" x2="1470.9" y2="2148" stroke="#565454"/>
<line x1="181.076" y1="1.47389e-08" x2="181.076" y2="2148" stroke="#565454"/>
<line x1="641.729" y1="1.47389e-08" x2="641.729" y2="2148" stroke="#565454"/>
<line x1="1102.38" y1="1.47389e-08" x2="1102.38" y2="2148" stroke="#565454"/>
<line x1="1563.03" y1="1.47389e-08" x2="1563.03" y2="2148" stroke="#565454"/>
<line x1="273.207" y1="1.47389e-08" x2="273.207" y2="2148" stroke="#565454"/>
<line x1="733.859" y1="1.47389e-08" x2="733.859" y2="2148" stroke="#565454"/>
<line x1="1194.51" y1="1.47389e-08" x2="1194.51" y2="2148" stroke="#565454"/>
<line x1="1655.16" y1="1.47389e-08" x2="1655.16" y2="2148" stroke="#565454"/>
<line x1="365.337" y1="1.47389e-08" x2="365.337" y2="2148" stroke="#565454"/>
<line x1="825.99" y1="1.47389e-08" x2="825.99" y2="2148" stroke="#565454"/>
<line x1="1286.64" y1="1.47389e-08" x2="1286.64" y2="2148" stroke="#565454"/>
<line x1="1747.3" y1="1.47389e-08" x2="1747.29" y2="2148" stroke="#565454"/>
<line x1="457.468" y1="1.47389e-08" x2="457.468" y2="2148" stroke="#565454"/>
<line x1="918.12" y1="1.47389e-08" x2="918.12" y2="2148" stroke="#565454"/>
<line x1="1378.77" y1="1.47389e-08" x2="1378.77" y2="2148" stroke="#565454"/>
<line x1="1839.43" y1="1.47389e-08" x2="1839.43" y2="2148" stroke="#565454"/>
<line x1="4.61754e-09" y1="2040.92" x2="1920" y2="2040.92" stroke="#565454"/>
<line x1="4.6603e-09" y1="1528.52" x2="1920" y2="1528.52" stroke="#565454"/>
<line x1="4.62957e-09" y1="1016.11" x2="1920" y2="1016.11" stroke="#565454"/>
<line x1="4.67243e-09" y1="503.707" x2="1920" y2="503.707" stroke="#565454"/>
<line x1="4.61754e-09" y1="1938.44" x2="1920" y2="1938.44" stroke="#565454"/>
<line x1="4.6603e-09" y1="1426.03" x2="1920" y2="1426.03" stroke="#565454"/>
<line x1="4.62957e-09" y1="913.629" x2="1920" y2="913.629" stroke="#565454"/>
<line x1="4.6603e-09" y1="401.227" x2="1920" y2="401.227" stroke="#565454"/>
<line x1="4.61754e-09" y1="1835.96" x2="1920" y2="1835.96" stroke="#565454"/>
<line x1="4.6603e-09" y1="1323.55" x2="1920" y2="1323.56" stroke="#565454"/>
<line x1="4.67243e-09" y1="811.148" x2="1920" y2="811.149" stroke="#565454"/>
<line x1="4.6603e-09" y1="298.746" x2="1920" y2="298.746" stroke="#565454"/>
<line x1="4.6603e-09" y1="1733.48" x2="1920" y2="1733.48" stroke="#565454"/>
<line x1="4.61754e-09" y1="1221.07" x2="1920" y2="1221.07" stroke="#565454"/>
<line x1="4.67243e-09" y1="708.669" x2="1920" y2="708.669" stroke="#565454"/>
<line x1="4.61754e-09" y1="196.264" x2="1920" y2="196.264" stroke="#565454"/>
<line x1="4.6603e-09" y1="1631" x2="1920" y2="1631" stroke="#565454"/>
<line x1="4.61754e-09" y1="1118.59" x2="1920" y2="1118.59" stroke="#565454"/>
<line x1="4.67243e-09" y1="606.186" x2="1920" y2="606.186" stroke="#565454"/>
<line x1="4.62957e-09" y1="93.7812" x2="1920" y2="93.7816" stroke="#565454"/>
</g>
</svg>
