<svg width="308" height="129" viewBox="0 0 308 129" fill="none" xmlns="http://www.w3.org/2000/svg">
<g filter="url(#filter0_d_495_8)">
<path d="M0 23C0 10.2975 10.2975 0 23 0H283.423C287.137 0 290.149 3.0113 290.149 6.72594H308L302.824 9.32627C295.053 13.23 290.149 21.1825 290.149 29.8786V106C290.149 118.703 279.851 129 267.149 129H23C10.2975 129 0 118.703 0 106V23Z" fill="white"/>
<path d="M308.673 8.06631L308 5.22594H291.512C290.807 1.39913 287.453 -1.5 283.423 -1.5H23C9.46902 -1.5 -1.5 9.46903 -1.5 23V106C-1.5 119.531 9.46904 130.5 23 130.5H267.149C280.68 130.5 291.649 119.531 291.649 106V29.8786C291.649 21.7497 296.233 14.3158 303.497 10.6666L302.824 9.32627L303.497 10.6666L308.673 8.06631Z" stroke="black" stroke-width="3"/>
</g>
<defs>
<filter id="filter0_d_495_8" x="-8" y="-3" width="322.347" height="147" filterUnits="userSpaceOnUse" color-interpolation-filters="sRGB">
<feFlood flood-opacity="0" result="BackgroundImageFix"/>
<feColorMatrix in="SourceAlpha" type="matrix" values="0 0 0 0 0 0 0 0 0 0 0 0 0 0 0 0 0 0 127 0" result="hardAlpha"/>
<feOffset dy="7"/>
<feGaussianBlur stdDeviation="2.5"/>
<feComposite in2="hardAlpha" operator="out"/>
<feColorMatrix type="matrix" values="0 0 0 0 0 0 0 0 0 0 0 0 0 0 0 0 0 0 0.75 0"/>
<feBlend mode="normal" in2="BackgroundImageFix" result="effect1_dropShadow_495_8"/>
<feBlend mode="normal" in="SourceGraphic" in2="effect1_dropShadow_495_8" result="shape"/>
</filter>
</defs>
</svg>
