<svg width="46" height="45" viewBox="0 0 46 45" fill="none" xmlns="http://www.w3.org/2000/svg">
<path d="M23 45C10.625 45 0.5 34.875 0.5 22.5C0.5 10.125 10.625 0 23 0C35.375 0 45.5 10.125 45.5 22.5C45.5 34.875 35.375 45 23 45ZM23 2.25C11.8625 2.25 2.75 11.3625 2.75 22.5C2.75 33.6375 11.8625 42.75 23 42.75C34.1375 42.75 43.25 33.6375 43.25 22.5C43.25 11.3625 34.1375 2.25 23 2.25Z" fill="#FF3636"/>
<path fill-rule="evenodd" clip-rule="evenodd" d="M19.2875 25.5244L29.75 16.0744C30.2 15.6244 29.6375 15.5119 29.075 15.8494L16.25 23.9494L10.7375 22.2619C9.49995 21.9244 9.49995 21.0244 10.9625 20.4619L32.675 12.1369C33.6875 11.6869 34.5875 12.3619 34.25 13.9369L30.5375 31.3744C30.3125 32.6119 29.525 32.9494 28.5125 32.3869L22.8875 28.2244L20.1875 30.8119C19.85 31.1494 19.4 31.1494 19.4 30.8119L19.2875 25.5244Z" fill="#FF3636"/>
</svg>
