<svg width="566" height="183" viewBox="0 0 566 183" fill="none" xmlns="http://www.w3.org/2000/svg">
<path d="M221.594 89.5316L227.051 90.0328V84.5526V48C227.051 24.2518 246.303 5 270.051 5H514.016C539.113 5 558.876 26.4039 556.879 51.4215L550.608 129.99C548.86 151.881 530.898 168.938 508.946 169.551L264.795 176.377C244.122 176.955 227.051 160.354 227.051 139.674V135.983L223.524 134.896L157.963 114.693L148.348 111.73L151.792 121.183L161.558 147.985L58.1194 116.965L118.65 124.433L127.224 125.491L123.87 117.53L107.668 79.0701L221.594 89.5316Z" fill="white" stroke="black" stroke-width="10"/>
</svg>
