<svg width="437" height="272" viewBox="0 0 437 272" fill="none" xmlns="http://www.w3.org/2000/svg">
<path d="M287.053 127.834L286.801 123.1H282.06L91.1702 123.1C74.5675 123.1 59.4481 113.542 52.3267 98.5443L37.4308 67.1733C23.8068 38.4809 44.923 5.42844 76.6842 5.7312L347.861 8.31613C364.321 8.47302 379.247 18.0131 386.302 32.8856L399.956 61.6717C413.489 90.2017 392.682 123.1 361.105 123.1H355.691H351.916L350.882 126.73L342.65 155.628L340.404 163.511L348.441 161.9L386.254 154.32L340.489 238.277L352.337 185.45L354.078 177.69L346.329 179.485L290.497 192.425L287.053 127.834Z" fill="white" stroke="black" stroke-width="10"/>
</svg>
