<svg width="391" height="302" viewBox="0 0 391 302" fill="none" xmlns="http://www.w3.org/2000/svg">
<path d="M105.999 142.026L105.804 137.229H101.003H51.5948C28.4783 137.229 9.49825 118.953 8.62541 95.8526L6.87862 49.6236C5.95788 25.256 25.463 5 49.848 5H335.392C361.641 5 381.765 28.3134 377.931 54.2808L371.106 100.51C367.991 121.603 349.889 137.229 328.567 137.229L163.345 137.229H159.314L158.459 141.167L151.488 173.252L149.756 181.223L157.645 179.149L188.786 170.963L152.135 259.133L161.303 205.533L162.668 197.551L154.92 199.906L108.921 213.885L105.999 142.026Z" fill="white" stroke="black" stroke-width="10"/>
</svg>
