<svg width="58" height="35" viewBox="0 0 58 35" fill="none" xmlns="http://www.w3.org/2000/svg">
<path d="M57.3431 28.8066C54.7218 24.9732 51.6541 21.4195 48.1955 18.2099C48.1325 18.1369 48.0983 18.0462 48.0983 17.9527C48.0983 17.8592 48.1325 17.7685 48.1955 17.6955C51.1716 13.9218 53.8019 9.9229 56.0585 5.74079C56.3849 5.14235 56.5401 4.47594 56.509 3.80567C56.478 3.1354 56.2618 2.48383 55.8813 1.91363C55.5342 1.3341 55.0268 0.851183 54.4116 0.514774C53.7963 0.178365 53.0956 0.000672173 52.3817 5.78037e-05H45.7369C44.8937 0.015257 44.0727 0.253745 43.3703 0.687491C42.668 1.12124 42.1136 1.73221 41.7721 2.44861C39.8421 6.41396 37.5291 10.2086 34.8616 13.786V3.70375C34.8645 3.21662 34.7634 2.73377 34.5641 2.28319C34.3647 1.8326 34.0712 1.42323 33.7004 1.07876C33.3296 0.734297 32.8889 0.461588 32.4039 0.276427C31.9188 0.091265 31.3991 -0.00267133 30.8747 5.78037e-05H21.1733C20.6085 0.00821503 20.0568 0.159519 19.5779 0.437636C19.0989 0.715754 18.7108 1.11012 18.4555 1.57816C18.2001 2.0462 18.0873 2.57014 18.1291 3.09342C18.1708 3.6167 18.3657 4.11944 18.6925 4.54737L19.5785 5.69964C20.0537 6.33365 20.3088 7.08755 20.3094 7.86012V15.7613C17.3856 11.7431 15.0609 7.37561 13.3988 2.77783C13.0991 1.96764 12.5347 1.26453 11.7843 0.766585C11.0338 0.268637 10.1348 0.000669578 9.21261 5.78037e-05H3.78602C3.20944 0.00646228 2.64184 0.13367 2.12554 0.3722C1.60924 0.61073 1.15755 0.95443 0.804123 1.37769C0.450699 1.80094 0.20466 2.29284 0.0843432 2.81672C-0.0359738 3.3406 -0.0274664 3.88294 0.109232 4.40334C3.09939 16.1934 9.36766 25.9671 17.3193 31.1523C17.7958 31.4667 18.3869 31.5935 18.9636 31.5048C19.5403 31.4162 20.0559 31.1193 20.398 30.679C20.5691 30.4591 20.6917 30.2099 20.7587 29.9458C20.8257 29.6817 20.8358 29.408 20.7885 29.1402C20.7411 28.8725 20.6372 28.6161 20.4828 28.3858C20.3284 28.1555 20.1264 27.9559 19.8886 27.7984C12.9337 23.2716 7.39637 14.6502 4.5834 4.11528H9.23476C11.273 9.86813 14.3433 15.2596 18.316 20.0617C18.7751 20.6067 19.4075 21.0035 20.1232 21.1955C20.8389 21.3876 21.6016 21.3653 22.3029 21.1317C23.0224 20.8987 23.6448 20.4614 24.0821 19.8816C24.5193 19.3019 24.7492 18.6091 24.7393 17.9013V7.86012C24.7441 6.55211 24.3936 5.26411 23.7204 4.11528H30.3652V15.2881C30.3573 16.0876 30.6328 16.8672 31.1492 17.5068C31.6655 18.1464 32.3941 18.6104 33.2225 18.8272C34.0262 19.0757 34.8957 19.0712 35.6964 18.8146C36.4971 18.558 37.1846 18.0634 37.6524 17.4074C40.7985 13.2379 43.4847 8.78473 45.6704 4.11528H51.8722C49.7611 7.97138 47.3244 11.6661 44.5851 15.1646C43.8944 16.0231 43.559 17.0836 43.6404 18.1527C43.7217 19.2218 44.2143 20.228 45.0281 20.9877C48.2586 24.0118 51.1664 27.3194 53.7106 30.8642H46.2906C44.0016 27.3442 40.9277 24.3203 37.2758 21.9959C36.7279 21.623 36.0784 21.4002 35.4011 21.3529C34.7238 21.3056 34.0457 21.4357 33.444 21.7284C32.8253 22.0226 32.3069 22.471 31.947 23.0234C31.5871 23.5757 31.3999 24.2103 31.4063 24.856V29.7531C31.4184 30.039 31.309 30.3178 31.1019 30.5295C30.8947 30.7412 30.6063 30.8688 30.2988 30.8848H28.3939C27.8065 30.8848 27.2431 31.1016 26.8277 31.4874C26.4124 31.8733 26.179 32.3967 26.179 32.9424C26.179 33.4881 26.4124 34.0115 26.8277 34.3973C27.2431 34.7832 27.8065 35 28.3939 35H30.2988C31.0337 34.9946 31.7602 34.8545 32.4366 34.5876C33.113 34.3208 33.7261 33.9325 34.2406 33.445C34.7551 32.9575 35.1609 32.3804 35.4347 31.7468C35.7085 31.1133 35.8449 30.4357 35.8361 29.7531V26.1111C38.5005 27.9729 40.7562 30.2918 42.4809 32.9424C42.8617 33.5554 43.4063 34.0669 44.062 34.4273C44.7177 34.7878 45.4624 34.985 46.2242 35H53.7106C54.4762 35.0018 55.228 34.8115 55.8868 34.4494C56.5457 34.0872 57.0871 33.5666 57.4539 32.9424C57.8301 32.3053 58.0181 31.587 57.9986 30.8606C57.9792 30.1342 57.753 29.4255 57.3431 28.8066Z" fill="#FF3636"/>
</svg>
